<svg width="24" height="24" viewBox="0 0 24 24" fill="none" xmlns="http://www.w3.org/2000/svg">
    <circle cx="12" cy="12" r="11.5" stroke="#CA0404"/>
    <path d="M13.165 9.22156V16.9991H10.84V9.22156H13.165ZM13.405 7.09156C13.405 7.27656 13.3675 7.45156 13.2925 7.61656C13.2175 7.77656 13.115 7.91906 12.985 8.04406C12.855 8.16406 12.7025 8.26156 12.5275 8.33656C12.3575 8.40656 12.175 8.44156 11.98 8.44156C11.79 8.44156 11.6125 8.40656 11.4475 8.33656C11.2825 8.26156 11.135 8.16406 11.005 8.04406C10.88 7.91906 10.78 7.77656 10.705 7.61656C10.635 7.45156 10.6 7.27656 10.6 7.09156C10.6 6.90156 10.635 6.72406 10.705 6.55906C10.78 6.39406 10.88 6.24906 11.005 6.12406C11.135 5.99906 11.2825 5.90156 11.4475 5.83156C11.6125 5.76156 11.79 5.72656 11.98 5.72656C12.175 5.72656 12.3575 5.76156 12.5275 5.83156C12.7025 5.90156 12.855 5.99906 12.985 6.12406C13.115 6.24906 13.2175 6.39406 13.2925 6.55906C13.3675 6.72406 13.405 6.90156 13.405 7.09156Z" fill="#CA0404"/>
</svg>